<mxfile host="app.diagrams.net" modified="2022-06-27T08:47:09.815Z" agent="5.0 (Windows NT 10.0; Win64; x64) AppleWebKit/537.36 (KHTML, like Gecko) Chrome/102.0.5005.124 Safari/537.36 Edg/102.0.1245.44" etag="yeIspGrNWESm1K4UYBC8" version="18.1.3" type="github">
  <diagram id="C5RBs43oDa-KdzZeNtuy" name="Page-1">
    <mxGraphModel dx="1038" dy="571" grid="1" gridSize="10" guides="1" tooltips="1" connect="1" arrows="1" fold="1" page="1" pageScale="1" pageWidth="827" pageHeight="1169" math="0" shadow="0">
      <root>
        <mxCell id="WIyWlLk6GJQsqaUBKTNV-0" />
        <mxCell id="WIyWlLk6GJQsqaUBKTNV-1" parent="WIyWlLk6GJQsqaUBKTNV-0" />
        <mxCell id="WIyWlLk6GJQsqaUBKTNV-2" value="" style="rounded=0;html=1;jettySize=auto;orthogonalLoop=1;fontSize=11;endArrow=classic;endFill=1;endSize=8;strokeWidth=1;shadow=0;labelBackgroundColor=none;edgeStyle=orthogonalEdgeStyle;" parent="WIyWlLk6GJQsqaUBKTNV-1" source="WIyWlLk6GJQsqaUBKTNV-3" edge="1">
          <mxGeometry relative="1" as="geometry">
            <mxPoint x="345" y="340" as="targetPoint" />
          </mxGeometry>
        </mxCell>
        <mxCell id="WIyWlLk6GJQsqaUBKTNV-3" value="Identify JSON query file for attack" style="rounded=1;whiteSpace=wrap;html=1;fontSize=12;glass=0;strokeWidth=1;shadow=0;" parent="WIyWlLk6GJQsqaUBKTNV-1" vertex="1">
          <mxGeometry x="285" y="250" width="120" height="40" as="geometry" />
        </mxCell>
        <mxCell id="M2cjQmx9eqWK_j2TW2mP-0" value="Malicious Actor" style="shape=umlActor;verticalLabelPosition=bottom;verticalAlign=top;html=1;outlineConnect=0;" vertex="1" parent="WIyWlLk6GJQsqaUBKTNV-1">
          <mxGeometry x="335" y="50" width="20" height="50" as="geometry" />
        </mxCell>
        <mxCell id="M2cjQmx9eqWK_j2TW2mP-6" style="edgeStyle=orthogonalEdgeStyle;rounded=0;orthogonalLoop=1;jettySize=auto;html=1;exitX=0.5;exitY=1;exitDx=0;exitDy=0;entryX=0.5;entryY=0;entryDx=0;entryDy=0;entryPerimeter=0;" edge="1" parent="WIyWlLk6GJQsqaUBKTNV-1" source="M2cjQmx9eqWK_j2TW2mP-2" target="M2cjQmx9eqWK_j2TW2mP-4">
          <mxGeometry relative="1" as="geometry" />
        </mxCell>
        <mxCell id="M2cjQmx9eqWK_j2TW2mP-2" value="Modify JSON file - trial attack payloads searching for vulnerability&amp;nbsp;" style="rounded=1;whiteSpace=wrap;html=1;" vertex="1" parent="WIyWlLk6GJQsqaUBKTNV-1">
          <mxGeometry x="285" y="340" width="120" height="60" as="geometry" />
        </mxCell>
        <mxCell id="M2cjQmx9eqWK_j2TW2mP-5" style="edgeStyle=orthogonalEdgeStyle;rounded=0;orthogonalLoop=1;jettySize=auto;html=1;exitX=1;exitY=0.5;exitDx=0;exitDy=0;exitPerimeter=0;entryX=1;entryY=0.5;entryDx=0;entryDy=0;" edge="1" parent="WIyWlLk6GJQsqaUBKTNV-1" source="M2cjQmx9eqWK_j2TW2mP-4" target="M2cjQmx9eqWK_j2TW2mP-2">
          <mxGeometry relative="1" as="geometry">
            <Array as="points">
              <mxPoint x="440" y="490" />
              <mxPoint x="440" y="370" />
            </Array>
          </mxGeometry>
        </mxCell>
        <mxCell id="M2cjQmx9eqWK_j2TW2mP-8" style="edgeStyle=orthogonalEdgeStyle;rounded=0;orthogonalLoop=1;jettySize=auto;html=1;exitX=0.5;exitY=1;exitDx=0;exitDy=0;exitPerimeter=0;entryX=0.5;entryY=0;entryDx=0;entryDy=0;" edge="1" parent="WIyWlLk6GJQsqaUBKTNV-1" source="M2cjQmx9eqWK_j2TW2mP-4" target="M2cjQmx9eqWK_j2TW2mP-7">
          <mxGeometry relative="1" as="geometry" />
        </mxCell>
        <mxCell id="M2cjQmx9eqWK_j2TW2mP-4" value="Vulnerability found" style="strokeWidth=2;html=1;shape=mxgraph.flowchart.decision;whiteSpace=wrap;" vertex="1" parent="WIyWlLk6GJQsqaUBKTNV-1">
          <mxGeometry x="295" y="440" width="100" height="100" as="geometry" />
        </mxCell>
        <mxCell id="M2cjQmx9eqWK_j2TW2mP-29" style="edgeStyle=orthogonalEdgeStyle;rounded=0;orthogonalLoop=1;jettySize=auto;html=1;exitX=0.5;exitY=1;exitDx=0;exitDy=0;startArrow=none;startFill=0;endArrow=classic;endFill=1;" edge="1" parent="WIyWlLk6GJQsqaUBKTNV-1" source="M2cjQmx9eqWK_j2TW2mP-7" target="M2cjQmx9eqWK_j2TW2mP-10">
          <mxGeometry relative="1" as="geometry" />
        </mxCell>
        <mxCell id="M2cjQmx9eqWK_j2TW2mP-7" value="Craft attack payload" style="rounded=1;whiteSpace=wrap;html=1;" vertex="1" parent="WIyWlLk6GJQsqaUBKTNV-1">
          <mxGeometry x="285" y="585" width="120" height="55" as="geometry" />
        </mxCell>
        <mxCell id="M2cjQmx9eqWK_j2TW2mP-27" style="edgeStyle=orthogonalEdgeStyle;rounded=0;orthogonalLoop=1;jettySize=auto;html=1;exitX=0.5;exitY=1;exitDx=0;exitDy=0;startArrow=none;startFill=0;endArrow=classic;endFill=1;" edge="1" parent="WIyWlLk6GJQsqaUBKTNV-1" source="M2cjQmx9eqWK_j2TW2mP-10">
          <mxGeometry relative="1" as="geometry">
            <mxPoint x="345" y="830" as="targetPoint" />
          </mxGeometry>
        </mxCell>
        <mxCell id="M2cjQmx9eqWK_j2TW2mP-10" value="Inject code into web application&#39;s server" style="rounded=1;whiteSpace=wrap;html=1;" vertex="1" parent="WIyWlLk6GJQsqaUBKTNV-1">
          <mxGeometry x="285" y="690" width="120" height="60" as="geometry" />
        </mxCell>
        <mxCell id="M2cjQmx9eqWK_j2TW2mP-25" style="edgeStyle=orthogonalEdgeStyle;rounded=0;orthogonalLoop=1;jettySize=auto;html=1;startArrow=none;startFill=0;endArrow=classic;endFill=1;" edge="1" parent="WIyWlLk6GJQsqaUBKTNV-1" source="M2cjQmx9eqWK_j2TW2mP-12">
          <mxGeometry relative="1" as="geometry">
            <mxPoint x="370" y="75" as="targetPoint" />
            <Array as="points">
              <mxPoint x="540" y="880" />
              <mxPoint x="540" y="75" />
            </Array>
          </mxGeometry>
        </mxCell>
        <mxCell id="M2cjQmx9eqWK_j2TW2mP-12" value="&lt;br&gt;Gain access to victims NoSQL database" style="strokeWidth=2;html=1;shape=mxgraph.flowchart.database;whiteSpace=wrap;" vertex="1" parent="WIyWlLk6GJQsqaUBKTNV-1">
          <mxGeometry x="275" y="840" width="155" height="80" as="geometry" />
        </mxCell>
        <mxCell id="M2cjQmx9eqWK_j2TW2mP-28" style="edgeStyle=orthogonalEdgeStyle;rounded=0;orthogonalLoop=1;jettySize=auto;html=1;exitX=0.5;exitY=1;exitDx=0;exitDy=0;exitPerimeter=0;entryX=0.5;entryY=0;entryDx=0;entryDy=0;startArrow=none;startFill=0;endArrow=classic;endFill=1;" edge="1" parent="WIyWlLk6GJQsqaUBKTNV-1" source="M2cjQmx9eqWK_j2TW2mP-13" target="WIyWlLk6GJQsqaUBKTNV-3">
          <mxGeometry relative="1" as="geometry" />
        </mxCell>
        <mxCell id="M2cjQmx9eqWK_j2TW2mP-13" value="&lt;span style=&quot;&quot;&gt;Accesses raw data of web application&lt;/span&gt;" style="strokeWidth=2;html=1;shape=mxgraph.flowchart.start_2;whiteSpace=wrap;" vertex="1" parent="WIyWlLk6GJQsqaUBKTNV-1">
          <mxGeometry x="295" y="120" width="100" height="100" as="geometry" />
        </mxCell>
        <mxCell id="M2cjQmx9eqWK_j2TW2mP-15" value="send" style="text;html=1;align=center;verticalAlign=middle;resizable=0;points=[];autosize=1;strokeColor=none;fillColor=none;" vertex="1" parent="WIyWlLk6GJQsqaUBKTNV-1">
          <mxGeometry x="300" y="410" width="40" height="20" as="geometry" />
        </mxCell>
        <mxCell id="M2cjQmx9eqWK_j2TW2mP-16" value="Yes" style="text;html=1;align=center;verticalAlign=middle;resizable=0;points=[];autosize=1;strokeColor=none;fillColor=none;" vertex="1" parent="WIyWlLk6GJQsqaUBKTNV-1">
          <mxGeometry x="300" y="550" width="40" height="20" as="geometry" />
        </mxCell>
        <mxCell id="M2cjQmx9eqWK_j2TW2mP-17" value="No" style="text;html=1;align=center;verticalAlign=middle;resizable=0;points=[];autosize=1;strokeColor=none;fillColor=none;" vertex="1" parent="WIyWlLk6GJQsqaUBKTNV-1">
          <mxGeometry x="440" y="420" width="30" height="20" as="geometry" />
        </mxCell>
        <mxCell id="M2cjQmx9eqWK_j2TW2mP-23" value="unauthorised access" style="text;html=1;align=center;verticalAlign=middle;resizable=0;points=[];autosize=1;strokeColor=none;fillColor=none;" vertex="1" parent="WIyWlLk6GJQsqaUBKTNV-1">
          <mxGeometry x="220" y="780" width="130" height="20" as="geometry" />
        </mxCell>
        <mxCell id="M2cjQmx9eqWK_j2TW2mP-30" value="leakage of sensitive&lt;br&gt;application data" style="text;html=1;align=center;verticalAlign=middle;resizable=0;points=[];autosize=1;strokeColor=none;fillColor=none;" vertex="1" parent="WIyWlLk6GJQsqaUBKTNV-1">
          <mxGeometry x="540" y="440" width="120" height="30" as="geometry" />
        </mxCell>
        <mxCell id="M2cjQmx9eqWK_j2TW2mP-32" value="send" style="text;html=1;align=center;verticalAlign=middle;resizable=0;points=[];autosize=1;strokeColor=none;fillColor=none;" vertex="1" parent="WIyWlLk6GJQsqaUBKTNV-1">
          <mxGeometry x="300" y="650" width="40" height="20" as="geometry" />
        </mxCell>
      </root>
    </mxGraphModel>
  </diagram>
</mxfile>
